<svg xmlns="http://www.w3.org/2000/svg" width="37.188" height="37.106" viewBox="0 0 37.188 37.106">
  <g id="XMLID_801_" transform="translate(0 -0.341)">
    <path id="XMLID_802_" d="M12.992,99.73H5.527a.6.6,0,0,0-.6.6v23.984a.6.6,0,0,0,.6.6h7.466a.6.6,0,0,0,.6-.6V100.33A.6.6,0,0,0,12.992,99.73Z" transform="translate(-4.336 -87.466)" fill="#fff"/>
    <path id="XMLID_803_" d="M4.926.341A4.922,4.922,0,1,0,9.849,5.262,4.929,4.929,0,0,0,4.926.341Z" fill="#fff"/>
    <path id="XMLID_804_" d="M121.085,94.761a8.768,8.768,0,0,0-6.559,2.754V95.957a.6.6,0,0,0-.6-.6h-7.15a.6.6,0,0,0-.6.6v23.984a.6.6,0,0,0,.6.6h7.449a.6.6,0,0,0,.6-.6V108.074c0-4,1.086-5.556,3.874-5.556,3.036,0,3.277,2.5,3.277,5.762v11.661a.6.6,0,0,0,.6.6h7.452a.6.6,0,0,0,.6-.6V106.785C130.627,100.839,129.493,94.761,121.085,94.761Z" transform="translate(-93.439 -83.093)" fill="#fff"/>
  </g>
</svg>
