<?xml version="1.0" encoding="utf-8"?>
<!-- Generator: Adobe Illustrator 26.5.0, SVG Export Plug-In . SVG Version: 6.00 Build 0)  -->
<svg version="1.1" id="Component_31_1" xmlns="http://www.w3.org/2000/svg" xmlns:xlink="http://www.w3.org/1999/xlink" x="0px"
	 y="0px" viewBox="0 0 120 120" style="enable-background:new 0 0 120 120;" xml:space="preserve">
<style type="text/css">
	.st0{fill:#FFFFFF;}
	.st1{fill:none;}
	.st2{fill:none;stroke:#000000;stroke-width:2;}
	.st3{fill:none;stroke:#000000;stroke-width:2;stroke-linecap:round;stroke-linejoin:round;}
	.st4{font-family:'OpenSans-Semibold';}
	.st5{font-size:12px;}
</style>
<circle id="Ellipse_47" class="st0" cx="60" cy="60" r="60"/>
<path id="arrow-down" d="M70.5,95.4l-1.7-1.7l-8.8,9l-8.8-9l-1.7,1.7l9.7,9.9c0.5,0.5,1.2,0.5,1.7,0c0,0,0,0,0,0L70.5,95.4z"/>
<g id="mouse" transform="translate(46 39)">
	<g id="mouse-body">
		<path class="st1" d="M14,0L14,0c7.7,0,14,6.3,14,14v14c0,7.7-6.3,14-14,14l0,0C6.3,42,0,35.7,0,28V14C0,6.3,6.3,0,14,0z"/>
		<path class="st2" d="M14,1L14,1c7.2,0,13,5.8,13,13v14c0,7.2-5.8,13-13,13l0,0C6.8,41,1,35.2,1,28V14C1,6.8,6.8,1,14,1z"/>
	</g>
	<path id="mouse-buttons" class="st3" d="M14,0.8v12"/>
	<g id="mouse-wheel" transform="translate(11 6)">
		<path class="st0" d="M3,0L3,0c1.7,0,3,1.3,3,3v2c0,1.7-1.3,3-3,3l0,0C1.3,8,0,6.7,0,5V3C0,1.3,1.3,0,3,0z"/>
		<path class="st2" d="M3,1L3,1c1.1,0,2,0.9,2,2v2c0,1.1-0.9,2-2,2l0,0C1.9,7,1,6.1,1,5V3C1,1.9,1.9,1,3,1z"/>
	</g>
</g>
<text transform="matrix(1 0 0 1 44.7391 27)" class="st4 st5">Scroll</text>
</svg>
