<svg xmlns="http://www.w3.org/2000/svg" width="40.806" height="33.409" viewBox="0 0 40.806 33.409">
  <g id="XMLID_826_" transform="translate(0.002 -28.097)">
    <path id="XMLID_827_" d="M39.879,31.953a15.469,15.469,0,0,1-1.974.719,8.724,8.724,0,0,0,1.776-3.124.658.658,0,0,0-.963-.767A15.532,15.532,0,0,1,34.128,30.6a8.764,8.764,0,0,0-14.892,6.261,8.936,8.936,0,0,0,.072,1.132A22.427,22.427,0,0,1,3.915,29.822a.658.658,0,0,0-1.079.085,8.773,8.773,0,0,0,.9,10.083,7.42,7.42,0,0,1-1.172-.524.658.658,0,0,0-.978.56c0,.039,0,.078,0,.117a8.791,8.791,0,0,0,4.288,7.533c-.223-.022-.445-.054-.666-.1a.658.658,0,0,0-.75.847A8.757,8.757,0,0,0,10.873,54.3a15.5,15.5,0,0,1-8.284,2.364,15.847,15.847,0,0,1-1.855-.109A.658.658,0,0,0,.3,57.762a23.624,23.624,0,0,0,12.775,3.744,22.726,22.726,0,0,0,17.608-7.734,24.513,24.513,0,0,0,6.1-15.976c0-.24,0-.483-.011-.725a17.029,17.029,0,0,0,3.919-4.151.658.658,0,0,0-.814-.968Z" transform="translate(0 0)" fill="#fff"/>
  </g>
</svg>
