<svg xmlns="http://www.w3.org/2000/svg" width="42.594" height="29.976" viewBox="0 0 42.594 29.976">
  <g id="XMLID_822_" transform="translate(0 -45.917)">
    <path id="XMLID_823_" d="M40.934,48.49c-1.538-1.828-4.376-2.573-9.8-2.573H11.457c-5.545,0-8.432.794-9.964,2.739C0,50.554,0,53.349,0,57.218v7.374c0,7.5,1.772,11.3,11.457,11.3H31.137c4.7,0,7.306-.658,8.992-2.271,1.728-1.654,2.466-4.355,2.466-9.03V57.218C42.594,53.138,42.479,50.326,40.934,48.49ZM27.346,61.923l-8.936,4.67a1.374,1.374,0,0,1-2.01-1.218V56.065a1.374,1.374,0,0,1,2.007-1.219l8.936,4.64a1.374,1.374,0,0,1,0,2.437Z" transform="translate(0 0)" fill="#fff"/>
  </g>
</svg>
