<svg id="volume-on" xmlns="http://www.w3.org/2000/svg" width="20.156" height="17" viewBox="0 0 20.156 17">
  <g id="Group_706" data-name="Group 706" transform="translate(14.637 3.864)">
    <path id="Path_657" data-name="Path 657" d="M282.164,91.067c-.019.183-.038.371-.063.554a6.434,6.434,0,0,1-1.643,3.481.256.256,0,0,1-.371.031,4.868,4.868,0,0,1-.4-.4c-.094-.107-.076-.22.025-.353.157-.2.327-.4.472-.611a5.427,5.427,0,0,0,.138-5.9,7.461,7.461,0,0,0-.567-.762c-.17-.214-.17-.315.025-.51.088-.088.176-.183.271-.271a.272.272,0,0,1,.434.019A6.425,6.425,0,0,1,282.133,90c.013.12.025.233.044.353C282.164,90.589,282.164,90.828,282.164,91.067Z" transform="translate(-276.658 -86.222)"/>
    <path id="Path_658" data-name="Path 658" d="M258.186,112.461a4.514,4.514,0,0,1-1.1,3.047.251.251,0,0,1-.384.031,3.745,3.745,0,0,1-.384-.39c-.094-.107-.082-.227.019-.365a5.924,5.924,0,0,0,.422-.642,3.3,3.3,0,0,0-.145-3.355c-.082-.132-.183-.252-.277-.378a.271.271,0,0,1,.025-.415l.3-.3a.268.268,0,0,1,.447.025,4.358,4.358,0,0,1,.988,2.039C258.148,112.033,258.167,112.316,258.186,112.461Z" transform="translate(-254.763 -108.112)"/>
    <path id="Path_659" data-name="Path 659" d="M233.859,134.547a2.36,2.36,0,0,1-.466,1.435.269.269,0,0,1-.447.038l-.3-.3a.271.271,0,0,1-.044-.422,1.285,1.285,0,0,0,.088-1.259,2.076,2.076,0,0,0-.113-.2.254.254,0,0,1,.038-.346c.113-.12.227-.233.346-.346a.257.257,0,0,1,.415.031,2.311,2.311,0,0,1,.46,1.127C233.847,134.39,233.853,134.491,233.859,134.547Z" transform="translate(-232.52 -130.104)"/>
  </g>
  <path id="XMLID_784_" d="M12.092,24.944a.955.955,0,0,0-.969.044L5.7,28.614H.944A.943.943,0,0,0,0,29.559v7.554a.943.943,0,0,0,.944.944H5.7l5.426,3.619a.925.925,0,0,0,.522.157.946.946,0,0,0,.944-.944V25.782A.949.949,0,0,0,12.092,24.944ZM10.7,39.12l-4.2-2.8a.976.976,0,0,0-.522-.157H1.888V30.5H5.98a.945.945,0,0,0,.522-.157l4.2-2.795Z" transform="translate(0 -24.833)"/>
</svg>
