<svg id="home-svgrepo-com" xmlns="http://www.w3.org/2000/svg" width="40" height="46.804" viewBox="0 0 40 46.804">
  <path id="home-svgrepo-com-2" data-name="home-svgrepo-com" d="M56.877,23.213a1.133,1.133,0,0,0-1.133,1.133V44.537H43.582V31.862a1.133,1.133,0,0,0-1.133-1.133H33.571a1.133,1.133,0,0,0-1.133,1.133v10.05a1.133,1.133,0,1,0,2.267,0V33h6.611V44.537H20.277V16.8L38.01,2.585,56.168,17.137a1.133,1.133,0,0,0,1.417-1.769L38.719.249a1.133,1.133,0,0,0-1.417,0L18.435,15.368a1.133,1.133,0,0,0-.425.884V45.67A1.133,1.133,0,0,0,19.143,46.8H56.877A1.133,1.133,0,0,0,58.01,45.67V24.346A1.133,1.133,0,0,0,56.877,23.213Z" transform="translate(-18.01 0.001)" fill="#636364"/>
</svg>
