<svg id="email" xmlns="http://www.w3.org/2000/svg" width="48" height="48" viewBox="0 0 48 48">
  <g id="Ellipse_43" data-name="Ellipse 43" fill="none" stroke="#707070" stroke-width="2">
    <circle cx="24" cy="24" r="24" stroke="none"/>
    <circle cx="24" cy="24" r="23" fill="none"/>
  </g>
  <g id="email-svgrepo-com" transform="translate(12 12)">
    <path id="email-svgrepo-com-2" data-name="email-svgrepo-com" d="M20.485,3.515A12,12,0,0,0,3.515,20.485a12.012,12.012,0,0,0,13.157,2.571l-.578-1.367A10.517,10.517,0,1,1,22.515,12c0,2.54-1.56,3.7-3.01,3.7s-3.01-1.157-3.01-3.7a4.5,4.5,0,1,0-.9,2.7,4.636,4.636,0,0,0,.794,1.144,4.3,4.3,0,0,0,6.235,0A5.437,5.437,0,0,0,24,12,11.922,11.922,0,0,0,20.485,3.515ZM12,15.01A3.01,3.01,0,1,1,15.01,12,3.014,3.014,0,0,1,12,15.01Z" transform="translate(0 0)" fill="#636364" stroke="#636364" stroke-width="0.5"/>
  </g>
</svg>
