<svg id="tw" xmlns="http://www.w3.org/2000/svg" width="48" height="48" viewBox="0 0 48 48">
  <g id="Ellipse_42" data-name="Ellipse 42" fill="none" stroke="#707070" stroke-width="2">
    <circle cx="24" cy="24" r="24" stroke="none"/>
    <circle cx="24" cy="24" r="23" fill="none"/>
  </g>
  <g id="twitter-icon" data-name="twitter" transform="translate(12 15.058)">
    <path id="twitter-svgrepo-com_1_2" data-name="twitter-svgrepo-com (1)" d="M25,3.011A22.215,22.215,0,0,1,21.575,4.68,4.887,4.887,0,0,0,13,7.953V9.044A11.629,11.629,0,0,1,7.47,7.806,11.629,11.629,0,0,1,3.182,4.1S-1.182,13.92,8.636,18.284A12.7,12.7,0,0,1,1,20.466c9.818,5.455,21.818,0,21.818-12.545a4.907,4.907,0,0,0-.087-.905A15.621,15.621,0,0,0,25,3.011Z" transform="translate(-1 -3)" fill="none" stroke="#636364" stroke-linecap="round" stroke-linejoin="round" stroke-width="2"/>
  </g>
</svg>
