<svg xmlns="http://www.w3.org/2000/svg" width="38.9" height="48.5" viewBox="0 0 38.9 48.5">
  <g id="infographic-file-svgrepo-com" transform="translate(-23.831 0.25)">
    <path id="Path_599" data-name="Path 599" d="M60.585,9.527,52.84,1.87A7.224,7.224,0,0,0,48.285,0H27.643a3.559,3.559,0,0,0-3.562,3.547V44.453A3.559,3.559,0,0,0,27.643,48H58.919a3.559,3.559,0,0,0,3.562-3.547V14.06A7.1,7.1,0,0,0,60.585,9.527Zm-2.431,1.88H51.961a.515.515,0,0,1-.509-.507V4.782Zm.765,33.553H27.643a.515.515,0,0,1-.509-.507V3.547a.515.515,0,0,1,.509-.507H48.285c.037,0,.076,0,.114,0V10.9a3.559,3.559,0,0,0,3.562,3.547h7.467V44.453A.515.515,0,0,1,58.919,44.96Z" transform="translate(0)" fill="#636364" stroke="#636364" stroke-width="0.5"/>
    <g id="audio-speaker-on-svgrepo-com" transform="translate(34.282 10.607)">
      <path id="Path_617" data-name="Path 617" d="M6.98,13.266,3.789,15.851H.874A.915.915,0,0,0,0,16.8v6.589a.915.915,0,0,0,.874.946H3.789L6.98,26.917a.868.868,0,0,0,1.4-.757V14.022A.869.869,0,0,0,6.98,13.266Z" transform="translate(0 -5.705)" fill="#636364"/>
      <path id="Path_618" data-name="Path 618" d="M67.114,22.406a.962.962,0,0,0-1.442,0,1.22,1.22,0,0,0,0,1.591,5.751,5.751,0,0,1,0,7.569,1.219,1.219,0,0,0,0,1.591.938.938,0,0,0,1.428-.016A8.118,8.118,0,0,0,67.114,22.406Z" transform="translate(-54.977 -13.402)" fill="#636364"/>
      <path id="Path_619" data-name="Path 619" d="M83.371,6.707a1.159,1.159,0,0,0,0,1.545,9.108,9.108,0,0,1,0,12.268,1.159,1.159,0,0,0,0,1.545.957.957,0,0,0,1.428.016A11.2,11.2,0,0,0,87.771,14.4,11.166,11.166,0,0,0,84.8,6.723.953.953,0,0,0,83.371,6.707Z" transform="translate(-69.775 0)" fill="#636364"/>
    </g>
  </g>
</svg>
