<svg xmlns="http://www.w3.org/2000/svg" width="38.9" height="48.5" viewBox="0 0 38.9 48.5">
  <g id="file-data-svgrepo-com" transform="translate(-59.51 -2.287)">
    <g id="Group_697" data-name="Group 697">
      <path id="Path_613" data-name="Path 613" d="M180.627,197.548H161.041a2.3,2.3,0,1,0,0,4.609h19.586a2.3,2.3,0,1,0,0-4.609Z" transform="translate(-91.875 -176.04)" fill="#636364"/>
      <path id="Path_614" data-name="Path 614" d="M180.627,283.245H161.041a2.3,2.3,0,1,0,0,4.608h19.586a2.3,2.3,0,1,0,0-4.608Z" transform="translate(-91.875 -253.708)" fill="#636364"/>
      <path id="Path_615" data-name="Path 615" d="M180.627,368.933H161.041a2.3,2.3,0,1,0,0,4.608h19.586a2.3,2.3,0,1,0,0-4.608Z" transform="translate(-91.875 -331.368)" fill="#636364"/>
    </g>
    <path id="Path_620" data-name="Path 620" d="M60.585,9.527,52.84,1.87A7.224,7.224,0,0,0,48.285,0H27.643a3.559,3.559,0,0,0-3.562,3.547V44.453A3.559,3.559,0,0,0,27.643,48H58.919a3.559,3.559,0,0,0,3.562-3.547V14.06A7.1,7.1,0,0,0,60.585,9.527Zm-2.431,1.88H51.961a.515.515,0,0,1-.509-.507V4.782Zm.765,33.553H27.643a.515.515,0,0,1-.509-.507V3.547a.515.515,0,0,1,.509-.507H48.285c.037,0,.076,0,.114,0V10.9a3.559,3.559,0,0,0,3.562,3.547h7.467V44.453A.515.515,0,0,1,58.919,44.96Z" transform="translate(35.679 2.537)" fill="#636364" stroke="#636364" stroke-width="0.5"/>
  </g>
</svg>
