<svg xmlns="http://www.w3.org/2000/svg" width="38.9" height="48.5" viewBox="0 0 38.9 48.5">
  <g id="infographic-file-svgrepo-com" transform="translate(-23.831 0.25)">
    <path id="Path_599" data-name="Path 599" d="M60.585,9.527,52.84,1.87A7.224,7.224,0,0,0,48.285,0H27.643a3.559,3.559,0,0,0-3.562,3.547V44.453A3.559,3.559,0,0,0,27.643,48H58.919a3.559,3.559,0,0,0,3.562-3.547V14.06A7.1,7.1,0,0,0,60.585,9.527Zm-2.431,1.88H51.961a.515.515,0,0,1-.509-.507V4.782Zm.765,33.553H27.643a.515.515,0,0,1-.509-.507V3.547a.515.515,0,0,1,.509-.507H48.285c.037,0,.076,0,.114,0V10.9a3.559,3.559,0,0,0,3.562,3.547h7.467V44.453A.515.515,0,0,1,58.919,44.96Z" transform="translate(0)" fill="#636364" stroke="#636364" stroke-width="0.5"/>
    <path id="Union_2" data-name="Union 2" d="M16663.08-3461.618c0-2.638,2.768-4.708,6.3-4.708s6.3,2.069,6.3,4.708-2.764,4.712-6.3,4.712S16663.08-3458.975,16663.08-3461.618Zm2.387,0c0,1.1,1.609,2.325,3.912,2.325s3.916-1.223,3.916-2.325-1.607-2.32-3.916-2.32S16665.467-3462.715,16665.467-3461.618Zm15.4-6a2.193,2.193,0,0,1-2.191-2.19v-5.307a2.193,2.193,0,0,1,2.191-2.191h5.7a2.2,2.2,0,0,1,2.189,2.191v5.307a2.195,2.195,0,0,1-2.189,2.19Zm.2-2.387h5.307v-4.913h-5.307Zm-13.273.762v-10.508a1.194,1.194,0,0,1,1.193-1.194,1.193,1.193,0,0,1,1.193,1.194v6.094h4.705a1.194,1.194,0,0,1,1.193,1.194,1.2,1.2,0,0,1-1.193,1.2h-4.705v2.023a1.2,1.2,0,0,1-1.193,1.194A1.2,1.2,0,0,1,16667.787-3469.245Zm-3.316-14.068a2.193,2.193,0,0,1-2.191-2.191v-5.307a2.193,2.193,0,0,1,2.191-2.19h10.072a2.193,2.193,0,0,1,2.191,2.19v5.307a2.193,2.193,0,0,1-2.191,2.191Zm.2-2.387h9.678v-4.909h-9.678Z" transform="translate(-16632.197 3499.058)" fill="#636364" stroke="#636364" stroke-width="0.5"/>
  </g>
</svg>
